<svg width="23" height="24" viewBox="0 0 23 24" fill="none" xmlns="http://www.w3.org/2000/svg">
<path d="M0.5 0.749975C0.500004 0.622079 0.532715 0.496308 0.595024 0.384616C0.657331 0.272924 0.747168 0.179021 0.855993 0.111832C0.964819 0.0446427 1.08902 0.00639913 1.21679 0.00073577C1.34456 -0.00492759 1.47166 0.0221774 1.586 0.0794749L13.586 6.07947C13.7104 6.14182 13.815 6.23756 13.8882 6.35597C13.9613 6.47438 14 6.61081 14 6.74997V11.46L22.487 14.289C22.6363 14.3387 22.7661 14.4341 22.8582 14.5617C22.9503 14.6893 22.9999 14.8426 23 15V23.25C23 23.4489 22.921 23.6397 22.7803 23.7803C22.6397 23.921 22.4489 24 22.25 24H8.75C8.55109 24 8.36032 23.921 8.21967 23.7803C8.07902 23.6397 8 23.4489 8 23.25V21H6.5V23.25C6.5 23.4489 6.42098 23.6397 6.28033 23.7803C6.13968 23.921 5.94891 24 5.75 24H1.25C1.05109 24 0.860321 23.921 0.719669 23.7803C0.579018 23.6397 0.5 23.4489 0.5 23.25V0.749975ZM20 16.5H18.5V18H20V16.5ZM17 16.5H15.5V18H17V16.5ZM18.5 19.5V21H20V19.5H18.5ZM17 19.5H15.5V21H17V19.5ZM3.5 4.49997V5.99997H5V4.49997H3.5ZM11 7.49997H9.5V8.99997H11V7.49997ZM9.5 10.5V12H11V10.5H9.5ZM11 13.5H9.5V15H11V13.5ZM8 13.5H6.5V15H8V13.5ZM9.5 16.5V18H11V16.5H9.5ZM8 16.5H6.5V18H8V16.5ZM3.5 13.5V15H5V13.5H3.5ZM5 16.5H3.5V18H5V16.5ZM8 10.5H6.5V12H8V10.5ZM3.5 10.5V12H5V10.5H3.5ZM6.5 7.49997V8.99997H8V7.49997H6.5ZM5 7.49997H3.5V8.99997H5V7.49997Z" fill="#3D42A4"/>
</svg>
