<svg width="48" height="48" viewBox="0 0 48 48" fill="none" xmlns="http://www.w3.org/2000/svg">
<path fill-rule="evenodd" clip-rule="evenodd" d="M34.5874 25.0886C31.8883 26.1708 28.9748 26.8383 25.9276 27.0112C25.4021 27.041 24.8726 27.0562 24.3395 27.0562C23.8064 27.0562 23.2769 27.041 22.7514 27.0112C19.7035 26.8382 16.7894 26.1705 14.0898 25.0878C8.42443 22.8158 3.70368 18.7165 0.672852 13.5281C5.39693 5.44098 14.2266 0 24.3395 0C34.4525 0 43.2821 5.44098 48.0062 13.5281C44.975 18.7171 40.2536 22.8167 34.5874 25.0886Z" fill="white"/>
<path d="M14.0894 27.1938C13.4368 26.932 12.7966 26.646 12.1702 26.3369C10.1343 27.7572 8.41316 29.526 7.11719 31.5441C9.32 34.9744 12.751 37.6845 16.8686 39.1866C18.8307 39.9024 20.9487 40.3439 23.1639 40.4582H25.4724C27.6871 40.3439 31.5798 42.5167 25.9273 47.9998C30.0454 46.4978 39.316 34.9747 41.5191 31.5441C40.2268 29.5318 38.5118 27.7672 36.4835 26.3491C35.8643 26.6538 35.2318 26.936 34.587 27.1945C31.8879 28.2767 28.9745 28.9442 25.9273 29.1172C25.4017 29.147 24.8722 29.1621 24.3392 29.1621C23.8061 29.1621 23.2766 29.147 22.7511 29.1172C19.7031 28.9442 16.789 28.2764 14.0894 27.1938Z" fill="white"/>
<rect x="12.9277" y="10.0674" width="22.8741" height="8.08988" rx="4.04494" fill="#162550"/>
<ellipse cx="30.6725" cy="14.0676" rx="1.49771" ry="1.48315" fill="#04FED1"/>
<ellipse cx="24.318" cy="34.0222" rx="1.49771" ry="1.48315" fill="#162550"/>
<ellipse cx="18.3278" cy="14.0676" rx="1.49771" ry="1.48315" fill="#04FED1"/>
<ellipse cx="18.3278" cy="34.0222" rx="1.49771" ry="1.48315" fill="#162550"/>
<ellipse cx="30.3102" cy="34.0222" rx="1.49771" ry="1.48315" fill="#162550"/>
</svg>
