<svg width="14" height="14" viewBox="0 0 14 14" fill="none" xmlns="http://www.w3.org/2000/svg">
<path fill-rule="evenodd" clip-rule="evenodd" d="M7 14C8.85652 14 10.637 13.2625 11.9497 11.9497C13.2625 10.637 14 8.85652 14 7C14 5.14348 13.2625 3.36301 11.9497 2.05025C10.637 0.737498 8.85652 0 7 0C5.14348 0 3.36301 0.737498 2.05025 2.05025C0.737498 3.36301 0 5.14348 0 7C0 8.85652 0.737498 10.637 2.05025 11.9497C3.36301 13.2625 5.14348 14 7 14ZM5.53 4.47C5.38783 4.33752 5.19978 4.2654 5.00548 4.26883C4.81118 4.27225 4.62579 4.35097 4.48838 4.48838C4.35097 4.62579 4.27225 4.81118 4.26883 5.00548C4.2654 5.19978 4.33752 5.38783 4.47 5.53L5.94 7L4.47 8.47C4.39631 8.53866 4.33721 8.62146 4.29622 8.71346C4.25523 8.80546 4.23319 8.90477 4.23141 9.00548C4.22963 9.10618 4.24816 9.20621 4.28588 9.2996C4.3236 9.39299 4.37974 9.47782 4.45096 9.54904C4.52218 9.62026 4.60701 9.6764 4.7004 9.71412C4.79379 9.75184 4.89382 9.77037 4.99452 9.76859C5.09523 9.76682 5.19454 9.74477 5.28654 9.70378C5.37854 9.66279 5.46134 9.60369 5.53 9.53L7 8.06L8.47 9.53C8.53866 9.60369 8.62146 9.66279 8.71346 9.70378C8.80546 9.74477 8.90477 9.76682 9.00548 9.76859C9.10618 9.77037 9.20621 9.75184 9.2996 9.71412C9.39299 9.6764 9.47782 9.62026 9.54904 9.54904C9.62026 9.47782 9.6764 9.39299 9.71412 9.2996C9.75184 9.20621 9.77037 9.10618 9.76859 9.00548C9.76682 8.90477 9.74477 8.80546 9.70378 8.71346C9.66279 8.62146 9.60369 8.53866 9.53 8.47L8.06 7L9.53 5.53C9.60369 5.46134 9.66279 5.37854 9.70378 5.28654C9.74477 5.19454 9.76682 5.09523 9.76859 4.99452C9.77037 4.89382 9.75184 4.79379 9.71412 4.7004C9.6764 4.60701 9.62026 4.52218 9.54904 4.45096C9.47782 4.37974 9.39299 4.3236 9.2996 4.28588C9.20621 4.24816 9.10618 4.22963 9.00548 4.23141C8.90477 4.23319 8.80546 4.25523 8.71346 4.29622C8.62146 4.33721 8.53866 4.39631 8.47 4.47L7 5.94L5.53 4.47Z" fill="#404040"/>
</svg>
