<svg width="20" height="22" viewBox="0 0 20 22" fill="none" xmlns="http://www.w3.org/2000/svg">
<path d="M13.3065 0.522503C13.4994 0.570687 13.6653 0.693509 13.7677 0.863965C13.8701 1.03442 13.9006 1.23856 13.8525 1.4315L13.4775 2.9315C13.4556 3.02902 13.4143 3.12116 13.3563 3.20252C13.2982 3.28388 13.2245 3.35281 13.1394 3.40527C13.0543 3.45772 12.9596 3.49264 12.8608 3.50798C12.7621 3.52331 12.6612 3.51874 12.5642 3.49454C12.4673 3.47035 12.3761 3.42701 12.2961 3.36708C12.2161 3.30715 12.1489 3.23184 12.0984 3.14557C12.048 3.05929 12.0152 2.9638 12.0022 2.8647C11.9892 2.7656 11.9961 2.6649 12.0225 2.5685L12.3975 1.0685C12.4457 0.875586 12.5685 0.7097 12.739 0.607314C12.9094 0.504928 13.1136 0.474422 13.3065 0.522503ZM17.781 2.2205C17.9216 2.36115 18.0006 2.55188 18.0006 2.75075C18.0006 2.94963 17.9216 3.14036 17.781 3.281L16.281 4.781C16.1404 4.92183 15.9496 5.00103 15.7505 5.00117C15.5515 5.00131 15.3606 4.92238 15.2198 4.78175C15.0789 4.64112 14.9997 4.45031 14.9996 4.25128C14.9994 4.05226 15.0784 3.86133 15.219 3.7205L16.719 2.2205C16.7887 2.15066 16.8714 2.09524 16.9626 2.05743C17.0537 2.01962 17.1514 2.00016 17.25 2.00016C17.3487 2.00016 17.4463 2.01962 17.5375 2.05743C17.6286 2.09524 17.7113 2.15066 17.781 2.2205ZM6.426 18.5495C6.80244 19.1762 7.39478 19.6439 8.09172 19.8647C8.78867 20.0855 9.54226 20.0442 10.2109 19.7486C10.8795 19.4529 11.4172 18.9233 11.7229 18.2592C12.0286 17.5951 12.0813 16.8422 11.871 16.142L6.426 18.5495ZM5.046 19.1585L3.549 19.8215C3.16168 19.9926 2.73168 20.0426 2.31543 19.965C1.89918 19.8874 1.51611 19.6857 1.2165 19.3865L0.616502 18.788C0.316893 18.4909 0.11448 18.1099 0.0360088 17.6953C-0.0424628 17.2807 0.00670037 16.8521 0.177002 16.466L5.9835 3.254C6.12108 2.94201 6.33257 2.66821 6.59968 2.45626C6.86679 2.24432 7.1815 2.10061 7.5166 2.03754C7.8517 1.97448 8.19711 1.99397 8.52299 2.09432C8.84888 2.19467 9.14542 2.37286 9.387 2.6135L17.385 10.5875C17.6259 10.8278 17.8046 11.1233 17.9056 11.4483C18.0066 11.7732 18.0268 12.1179 17.9644 12.4525C17.902 12.787 17.759 13.1013 17.5478 13.3681C17.3365 13.6349 17.0633 13.8461 16.752 13.9835L13.2495 15.5315C13.6197 16.5985 13.5752 17.7658 13.1247 18.8015C12.6743 19.8372 11.8508 20.6656 10.8178 21.1223C9.78484 21.579 8.6179 21.6306 7.54866 21.2668C6.47942 20.903 5.58609 20.1504 5.046 19.1585ZM18.75 6.5H17.25C17.0511 6.5 16.8603 6.57902 16.7197 6.71967C16.579 6.86033 16.5 7.05109 16.5 7.25C16.5 7.44892 16.579 7.63968 16.7197 7.78033C16.8603 7.92099 17.0511 8 17.25 8H18.75C18.9489 8 19.1397 7.92099 19.2803 7.78033C19.421 7.63968 19.5 7.44892 19.5 7.25C19.5 7.05109 19.421 6.86033 19.2803 6.71967C19.1397 6.57902 18.9489 6.5 18.75 6.5Z" fill="#E0E1FA"/>
<path d="M13.3065 0.522503C13.4994 0.570687 13.6653 0.693509 13.7677 0.863965C13.8701 1.03442 13.9006 1.23856 13.8525 1.4315L13.4775 2.9315C13.4556 3.02902 13.4143 3.12116 13.3563 3.20252C13.2982 3.28388 13.2245 3.35281 13.1394 3.40527C13.0543 3.45772 12.9596 3.49264 12.8608 3.50798C12.7621 3.52331 12.6612 3.51874 12.5642 3.49454C12.4673 3.47035 12.3761 3.42701 12.2961 3.36708C12.2161 3.30715 12.1489 3.23184 12.0984 3.14557C12.048 3.05929 12.0152 2.9638 12.0022 2.8647C11.9892 2.7656 11.9961 2.6649 12.0225 2.5685L12.3975 1.0685C12.4457 0.875586 12.5685 0.7097 12.739 0.607314C12.9094 0.504928 13.1136 0.474422 13.3065 0.522503ZM17.781 2.2205C17.9216 2.36115 18.0006 2.55188 18.0006 2.75075C18.0006 2.94963 17.9216 3.14036 17.781 3.281L16.281 4.781C16.1404 4.92183 15.9496 5.00103 15.7505 5.00117C15.5515 5.00131 15.3606 4.92238 15.2198 4.78175C15.0789 4.64112 14.9997 4.45031 14.9996 4.25128C14.9994 4.05226 15.0784 3.86133 15.219 3.7205L16.719 2.2205C16.7887 2.15066 16.8714 2.09524 16.9626 2.05743C17.0537 2.01962 17.1514 2.00016 17.25 2.00016C17.3487 2.00016 17.4463 2.01962 17.5375 2.05743C17.6286 2.09524 17.7113 2.15066 17.781 2.2205ZM6.426 18.5495C6.80244 19.1762 7.39478 19.6439 8.09172 19.8647C8.78867 20.0855 9.54226 20.0442 10.2109 19.7486C10.8795 19.4529 11.4172 18.9233 11.7229 18.2592C12.0286 17.5951 12.0813 16.8422 11.871 16.142L6.426 18.5495ZM5.046 19.1585L3.549 19.8215C3.16168 19.9926 2.73168 20.0426 2.31543 19.965C1.89918 19.8874 1.51611 19.6857 1.2165 19.3865L0.616502 18.788C0.316893 18.4909 0.11448 18.1099 0.0360088 17.6953C-0.0424628 17.2807 0.00670037 16.8521 0.177002 16.466L5.9835 3.254C6.12108 2.94201 6.33257 2.66821 6.59968 2.45626C6.86679 2.24432 7.1815 2.10061 7.5166 2.03754C7.8517 1.97448 8.19711 1.99397 8.52299 2.09432C8.84888 2.19467 9.14542 2.37286 9.387 2.6135L17.385 10.5875C17.6259 10.8278 17.8046 11.1233 17.9056 11.4483C18.0066 11.7732 18.0268 12.1179 17.9644 12.4525C17.902 12.787 17.759 13.1013 17.5478 13.3681C17.3365 13.6349 17.0633 13.8461 16.752 13.9835L13.2495 15.5315C13.6197 16.5985 13.5752 17.7658 13.1247 18.8015C12.6743 19.8372 11.8508 20.6656 10.8178 21.1223C9.78484 21.579 8.6179 21.6306 7.54866 21.2668C6.47942 20.903 5.58609 20.1504 5.046 19.1585ZM18.75 6.5H17.25C17.0511 6.5 16.8603 6.57902 16.7197 6.71967C16.579 6.86033 16.5 7.05109 16.5 7.25C16.5 7.44892 16.579 7.63968 16.7197 7.78033C16.8603 7.92099 17.0511 8 17.25 8H18.75C18.9489 8 19.1397 7.92099 19.2803 7.78033C19.421 7.63968 19.5 7.44892 19.5 7.25C19.5 7.05109 19.421 6.86033 19.2803 6.71967C19.1397 6.57902 18.9489 6.5 18.75 6.5Z" fill="black" fill-opacity="0.2"/>
</svg>
