<svg width="20" height="24" viewBox="0 0 20 24" fill="none" xmlns="http://www.w3.org/2000/svg">
<path d="M19.6 5.52V20.4C19.6 22.68 19 24 16.72 24H9.40002C8.32002 24 7.24002 23.52 6.52002 22.8L1.00002 16.8L0.400024 15.6C0.400024 14.4 1.00002 14.4 1.00002 14.4C1.36002 14.4 1.72002 14.4 2.20002 14.64L6.40002 16.8V3.96C6.40002 3.12 6.76002 2.4 7.60002 2.4C8.32002 2.4 8.80002 3.24 8.80002 4.08V10.8H10V1.44C10 0.72 10.36 0 11.2 0C12.04 0 12.4 0.72 12.4 1.56V10.8H13.6V2.4C13.6 1.56 13.96 0.84 14.8 0.84C15.64 0.84 16 1.56 16 2.4V10.8H17.2V5.52C17.2 4.68 17.56 3.96 18.4 3.96C19.24 3.96 19.6 4.68 19.6 5.52Z" fill="#E0E1FA"/>
<path d="M19.6 5.52V20.4C19.6 22.68 19 24 16.72 24H9.40002C8.32002 24 7.24002 23.52 6.52002 22.8L1.00002 16.8L0.400024 15.6C0.400024 14.4 1.00002 14.4 1.00002 14.4C1.36002 14.4 1.72002 14.4 2.20002 14.64L6.40002 16.8V3.96C6.40002 3.12 6.76002 2.4 7.60002 2.4C8.32002 2.4 8.80002 3.24 8.80002 4.08V10.8H10V1.44C10 0.72 10.36 0 11.2 0C12.04 0 12.4 0.72 12.4 1.56V10.8H13.6V2.4C13.6 1.56 13.96 0.84 14.8 0.84C15.64 0.84 16 1.56 16 2.4V10.8H17.2V5.52C17.2 4.68 17.56 3.96 18.4 3.96C19.24 3.96 19.6 4.68 19.6 5.52Z" fill="black" fill-opacity="0.2"/>
</svg>
