<svg width="20" height="18" viewBox="0 0 20 18" fill="none" xmlns="http://www.w3.org/2000/svg">
<path d="M9.79201 17.712C9.54734 17.712 9.33234 17.6287 9.14701 17.462C8.96167 17.2967 8.86901 17.0787 8.86901 16.808C8.86901 16.6787 8.89734 16.5353 8.95401 16.378C9.01067 16.2207 9.09534 16.0857 9.20801 15.973L12.618 12.563C12.7047 12.4763 12.748 12.3847 12.748 12.288C12.748 12.1913 12.7047 12.0993 12.618 12.012C12.5313 11.9247 12.436 11.885 12.332 11.893C12.228 11.901 12.139 11.9423 12.065 12.017L8.66201 15.421C8.54867 15.5343 8.42101 15.619 8.27901 15.675C8.13701 15.7317 7.99267 15.76 7.84601 15.76C7.58867 15.76 7.37034 15.6703 7.19101 15.491C7.01167 15.3117 6.92234 15.0937 6.92301 14.837C6.92301 14.683 6.95434 14.5327 7.01701 14.386C7.08034 14.2393 7.16001 14.1177 7.25601 14.021L10.666 10.611C10.7527 10.5243 10.796 10.4337 10.796 10.339C10.796 10.2443 10.7527 10.1533 10.666 10.066C10.5793 9.97867 10.485 9.938 10.383 9.944C10.281 9.95 10.193 9.99067 10.119 10.066L6.70901 13.469C6.60901 13.569 6.48501 13.6503 6.33701 13.713C6.18901 13.7757 6.03967 13.8073 5.88901 13.808C5.63501 13.808 5.41767 13.7173 5.23701 13.536C5.05634 13.356 4.96601 13.1387 4.96601 12.884C4.96601 12.7387 4.99401 12.5947 5.05001 12.452C5.10601 12.3093 5.19067 12.1817 5.30401 12.069L8.47701 8.896C8.56367 8.80933 8.60701 8.71733 8.60701 8.62C8.60701 8.52267 8.56367 8.43067 8.47701 8.344C8.39034 8.25733 8.29601 8.217 8.19401 8.223C8.09201 8.229 8.00434 8.26933 7.93101 8.344L4.75801 11.523C4.66201 11.619 4.53967 11.6987 4.39101 11.762C4.24167 11.8247 4.09034 11.856 3.93701 11.856C3.66634 11.856 3.44467 11.7697 3.27201 11.597C3.10001 11.425 3.01401 11.2037 3.01401 10.933C3.01401 10.7863 3.04201 10.642 3.09801 10.5C3.15467 10.358 3.23934 10.2303 3.35201 10.117L7.69401 5.775C7.86467 5.60433 8.06501 5.521 8.29501 5.525C8.52501 5.529 8.72534 5.61633 8.89601 5.787L10.446 7.337C10.6293 7.52033 10.8363 7.65 11.067 7.726C11.2977 7.80267 11.5317 7.841 11.769 7.841C12.251 7.841 12.6537 7.68233 12.977 7.365C13.3003 7.047 13.462 6.64133 13.462 6.148C13.462 5.91467 13.417 5.67933 13.327 5.442C13.237 5.20467 13.0967 4.99067 12.906 4.8L11.539 3.433C11.2017 3.09567 11.0103 2.70633 10.965 2.265C10.919 1.82433 11.0507 1.45267 11.36 1.15C11.5733 0.912667 11.8227 0.736 12.108 0.62C12.3927 0.502667 12.6893 0.444 12.998 0.444C13.31 0.444 13.617 0.505 13.919 0.627C14.2217 0.748334 14.4973 0.933667 14.746 1.183L19.03 5.47C19.24 5.68 19.4063 5.93667 19.529 6.24C19.6517 6.542 19.713 6.877 19.713 7.245C19.713 7.57833 19.6507 7.89333 19.526 8.19C19.402 8.48667 19.2367 8.73833 19.03 8.945L10.609 17.372C10.501 17.48 10.3743 17.5633 10.229 17.622C10.085 17.6813 9.93967 17.711 9.79301 17.711M1.26701 9.374C0.911674 9.064 0.641674 8.708 0.457007 8.306C0.273674 7.904 0.182007 7.494 0.182007 7.076C0.182007 6.71867 0.24834 6.37267 0.381007 6.038C0.513674 5.70333 0.717007 5.39867 0.991007 5.124L4.92801 1.182C5.14734 0.962 5.38934 0.79 5.65401 0.666C5.91867 0.542 6.20434 0.48 6.51101 0.48C6.82434 0.48 7.12901 0.542 7.42501 0.666C7.72101 0.79 7.97834 0.962 8.19701 1.182L12.361 5.345C12.4697 5.45433 12.553 5.57767 12.611 5.715C12.669 5.85233 12.6983 5.99433 12.699 6.141C12.699 6.399 12.6097 6.62067 12.431 6.806C12.2523 6.99133 12.034 7.084 11.776 7.084C11.6173 7.084 11.469 7.05467 11.331 6.996C11.193 6.93733 11.0697 6.854 10.961 6.746L9.42401 5.215C9.11734 4.90833 8.73967 4.755 8.29101 4.755C7.84234 4.755 7.46434 4.90833 7.15701 5.215L2.93701 9.434C2.70767 9.66333 2.43434 9.766 2.11701 9.742C1.80034 9.71867 1.51701 9.596 1.26701 9.374Z" fill="#E0E1FA"/>
<path d="M9.79201 17.712C9.54734 17.712 9.33234 17.6287 9.14701 17.462C8.96167 17.2967 8.86901 17.0787 8.86901 16.808C8.86901 16.6787 8.89734 16.5353 8.95401 16.378C9.01067 16.2207 9.09534 16.0857 9.20801 15.973L12.618 12.563C12.7047 12.4763 12.748 12.3847 12.748 12.288C12.748 12.1913 12.7047 12.0993 12.618 12.012C12.5313 11.9247 12.436 11.885 12.332 11.893C12.228 11.901 12.139 11.9423 12.065 12.017L8.66201 15.421C8.54867 15.5343 8.42101 15.619 8.27901 15.675C8.13701 15.7317 7.99267 15.76 7.84601 15.76C7.58867 15.76 7.37034 15.6703 7.19101 15.491C7.01167 15.3117 6.92234 15.0937 6.92301 14.837C6.92301 14.683 6.95434 14.5327 7.01701 14.386C7.08034 14.2393 7.16001 14.1177 7.25601 14.021L10.666 10.611C10.7527 10.5243 10.796 10.4337 10.796 10.339C10.796 10.2443 10.7527 10.1533 10.666 10.066C10.5793 9.97867 10.485 9.938 10.383 9.944C10.281 9.95 10.193 9.99067 10.119 10.066L6.70901 13.469C6.60901 13.569 6.48501 13.6503 6.33701 13.713C6.18901 13.7757 6.03967 13.8073 5.88901 13.808C5.63501 13.808 5.41767 13.7173 5.23701 13.536C5.05634 13.356 4.96601 13.1387 4.96601 12.884C4.96601 12.7387 4.99401 12.5947 5.05001 12.452C5.10601 12.3093 5.19067 12.1817 5.30401 12.069L8.47701 8.896C8.56367 8.80933 8.60701 8.71733 8.60701 8.62C8.60701 8.52267 8.56367 8.43067 8.47701 8.344C8.39034 8.25733 8.29601 8.217 8.19401 8.223C8.09201 8.229 8.00434 8.26933 7.93101 8.344L4.75801 11.523C4.66201 11.619 4.53967 11.6987 4.39101 11.762C4.24167 11.8247 4.09034 11.856 3.93701 11.856C3.66634 11.856 3.44467 11.7697 3.27201 11.597C3.10001 11.425 3.01401 11.2037 3.01401 10.933C3.01401 10.7863 3.04201 10.642 3.09801 10.5C3.15467 10.358 3.23934 10.2303 3.35201 10.117L7.69401 5.775C7.86467 5.60433 8.06501 5.521 8.29501 5.525C8.52501 5.529 8.72534 5.61633 8.89601 5.787L10.446 7.337C10.6293 7.52033 10.8363 7.65 11.067 7.726C11.2977 7.80267 11.5317 7.841 11.769 7.841C12.251 7.841 12.6537 7.68233 12.977 7.365C13.3003 7.047 13.462 6.64133 13.462 6.148C13.462 5.91467 13.417 5.67933 13.327 5.442C13.237 5.20467 13.0967 4.99067 12.906 4.8L11.539 3.433C11.2017 3.09567 11.0103 2.70633 10.965 2.265C10.919 1.82433 11.0507 1.45267 11.36 1.15C11.5733 0.912667 11.8227 0.736 12.108 0.62C12.3927 0.502667 12.6893 0.444 12.998 0.444C13.31 0.444 13.617 0.505 13.919 0.627C14.2217 0.748334 14.4973 0.933667 14.746 1.183L19.03 5.47C19.24 5.68 19.4063 5.93667 19.529 6.24C19.6517 6.542 19.713 6.877 19.713 7.245C19.713 7.57833 19.6507 7.89333 19.526 8.19C19.402 8.48667 19.2367 8.73833 19.03 8.945L10.609 17.372C10.501 17.48 10.3743 17.5633 10.229 17.622C10.085 17.6813 9.93967 17.711 9.79301 17.711M1.26701 9.374C0.911674 9.064 0.641674 8.708 0.457007 8.306C0.273674 7.904 0.182007 7.494 0.182007 7.076C0.182007 6.71867 0.24834 6.37267 0.381007 6.038C0.513674 5.70333 0.717007 5.39867 0.991007 5.124L4.92801 1.182C5.14734 0.962 5.38934 0.79 5.65401 0.666C5.91867 0.542 6.20434 0.48 6.51101 0.48C6.82434 0.48 7.12901 0.542 7.42501 0.666C7.72101 0.79 7.97834 0.962 8.19701 1.182L12.361 5.345C12.4697 5.45433 12.553 5.57767 12.611 5.715C12.669 5.85233 12.6983 5.99433 12.699 6.141C12.699 6.399 12.6097 6.62067 12.431 6.806C12.2523 6.99133 12.034 7.084 11.776 7.084C11.6173 7.084 11.469 7.05467 11.331 6.996C11.193 6.93733 11.0697 6.854 10.961 6.746L9.42401 5.215C9.11734 4.90833 8.73967 4.755 8.29101 4.755C7.84234 4.755 7.46434 4.90833 7.15701 5.215L2.93701 9.434C2.70767 9.66333 2.43434 9.766 2.11701 9.742C1.80034 9.71867 1.51701 9.596 1.26701 9.374Z" fill="black" fill-opacity="0.2"/>
</svg>
