<svg width="18" height="18" viewBox="0 0 18 18" fill="none" xmlns="http://www.w3.org/2000/svg">
<path fill-rule="evenodd" clip-rule="evenodd" d="M5 0C4.73481 5.66374e-05 4.48049 0.105451 4.293 0.293L0.293 4.293C0.11631 4.46908 0.0118068 4.70483 0 4.954M0 5.008V15C0 15.7956 0.316071 16.5587 0.87868 17.1213C1.44129 17.6839 2.20435 18 3 18H15C15.7956 18 16.5587 17.6839 17.1213 17.1213C17.6839 16.5587 18 15.7956 18 15V5.008L17.999 4.954C17.9875 4.70497 17.8833 4.46923 17.707 4.293L13.707 0.293C13.5195 0.105451 13.2652 5.66374e-05 13 0H5M14.586 4L12.586 2H5.414L3.414 4H14.586ZM4 9C4 8.73478 4.10536 8.48043 4.29289 8.29289C4.48043 8.10536 4.73478 8 5 8H9C9.26522 8 9.51957 8.10536 9.70711 8.29289C9.89464 8.48043 10 8.73478 10 9C10 9.26522 9.89464 9.51957 9.70711 9.70711C9.51957 9.89464 9.26522 10 9 10H5C4.73478 10 4.48043 9.89464 4.29289 9.70711C4.10536 9.51957 4 9.26522 4 9Z" fill="#E0E1FA"/>
<path fill-rule="evenodd" clip-rule="evenodd" d="M5 0C4.73481 5.66374e-05 4.48049 0.105451 4.293 0.293L0.293 4.293C0.11631 4.46908 0.0118068 4.70483 0 4.954M0 5.008V15C0 15.7956 0.316071 16.5587 0.87868 17.1213C1.44129 17.6839 2.20435 18 3 18H15C15.7956 18 16.5587 17.6839 17.1213 17.1213C17.6839 16.5587 18 15.7956 18 15V5.008L17.999 4.954C17.9875 4.70497 17.8833 4.46923 17.707 4.293L13.707 0.293C13.5195 0.105451 13.2652 5.66374e-05 13 0H5M14.586 4L12.586 2H5.414L3.414 4H14.586ZM4 9C4 8.73478 4.10536 8.48043 4.29289 8.29289C4.48043 8.10536 4.73478 8 5 8H9C9.26522 8 9.51957 8.10536 9.70711 8.29289C9.89464 8.48043 10 8.73478 10 9C10 9.26522 9.89464 9.51957 9.70711 9.70711C9.51957 9.89464 9.26522 10 9 10H5C4.73478 10 4.48043 9.89464 4.29289 9.70711C4.10536 9.51957 4 9.26522 4 9Z" fill="black" fill-opacity="0.2"/>
</svg>
