<svg width="22" height="20" viewBox="0 0 22 20" fill="none" xmlns="http://www.w3.org/2000/svg">
<path d="M6.5 1.5C3.4625 1.5 1 3.9625 1 7C1 12.5 7.5 17.5 11 18.663C14.5 17.5 21 12.5 21 7C21 3.9625 18.5375 1.5 15.5 1.5C13.64 1.5 11.995 2.4235 11 3.837C10.4928 3.11469 9.81897 2.5252 9.03568 2.11841C8.25238 1.71162 7.38263 1.4995 6.5 1.5Z" fill="#E0E1FA"/>
<path d="M6.5 1.5C3.4625 1.5 1 3.9625 1 7C1 12.5 7.5 17.5 11 18.663C14.5 17.5 21 12.5 21 7C21 3.9625 18.5375 1.5 15.5 1.5C13.64 1.5 11.995 2.4235 11 3.837C10.4928 3.11469 9.81897 2.5252 9.03568 2.11841C8.25238 1.71162 7.38263 1.4995 6.5 1.5Z" fill="black" fill-opacity="0.2"/>
<path d="M6.5 1.5C3.4625 1.5 1 3.9625 1 7C1 12.5 7.5 17.5 11 18.663C14.5 17.5 21 12.5 21 7C21 3.9625 18.5375 1.5 15.5 1.5C13.64 1.5 11.995 2.4235 11 3.837C10.4928 3.11469 9.81897 2.5252 9.03568 2.11841C8.25238 1.71162 7.38263 1.4995 6.5 1.5Z" stroke="white" stroke-width="2" stroke-linecap="round" stroke-linejoin="round"/>
<path d="M8 10H14M11 7V13" stroke="black" stroke-width="2" stroke-linecap="round" stroke-linejoin="round"/>
</svg>
