<svg width="48" height="48" viewBox="0 0 48 48" fill="none" xmlns="http://www.w3.org/2000/svg">
<path d="M42.5 26V17C42.5 14.3478 41.4464 11.8043 39.5711 9.92893C37.6957 8.05357 35.1522 7 32.5 7H15.5C12.8478 7 10.3043 8.05357 8.42893 9.92893C6.55357 11.8043 5.5 14.3478 5.5 17V31C5.5 32.3132 5.75866 33.6136 6.2612 34.8268C6.76375 36.0401 7.50035 37.1425 8.42893 38.0711C10.3043 39.9464 12.8478 41 15.5 41H28.02" stroke="#6F6E6E" stroke-width="2.5" stroke-linecap="round" stroke-linejoin="round"/>
<path d="M6.02002 33.9998L11.5 27.5998C12.2197 26.885 13.1642 26.4408 14.1738 26.3424C15.1833 26.244 16.1959 26.4974 17.04 27.0598C17.8842 27.6221 18.8967 27.8755 19.9063 27.7771C20.9158 27.6787 21.8603 27.2345 22.58 26.5198L27.24 21.8598C28.579 20.5162 30.3518 19.6922 32.2421 19.5347C34.1324 19.3771 36.0171 19.8964 37.56 20.9998L42.5 24.8198M16.02 20.3398C16.456 20.3371 16.8872 20.2487 17.289 20.0794C17.6908 19.9101 18.0553 19.6634 18.3618 19.3532C18.6682 19.0431 18.9105 18.6756 19.075 18.2718C19.2394 17.868 19.3226 17.4358 19.32 16.9998C19.3174 16.5638 19.2289 16.1326 19.0596 15.7308C18.8904 15.329 18.6436 14.9645 18.3335 14.658C18.0233 14.3516 17.6559 14.1093 17.2521 13.9448C16.8482 13.7804 16.416 13.6971 15.98 13.6998C15.0995 13.7051 14.2572 14.0599 13.6383 14.6863C13.0194 15.3127 12.6747 16.1592 12.68 17.0398C12.6853 17.9203 13.0402 18.7626 13.6666 19.3815C14.2929 20.0004 15.1395 20.3451 16.02 20.3398Z" stroke="#6F6E6E" stroke-width="2.5" stroke-linecap="round" stroke-linejoin="round"/>
<path d="M37.4141 30V40" stroke="#6F6E6E" stroke-width="2.5" stroke-miterlimit="10" stroke-linecap="round"/>
<path d="M41.9999 34.2098L38.0659 30.2758C37.9804 30.1899 37.8788 30.1218 37.7669 30.0753C37.655 30.0288 37.535 30.0049 37.4139 30.0049C37.2927 30.0049 37.1727 30.0288 37.0609 30.0753C36.949 30.1218 36.8474 30.1899 36.7619 30.2758L32.8279 34.2098" stroke="#6F6E6E" stroke-width="2.5" stroke-linecap="round" stroke-linejoin="round"/>
</svg>
