<svg width="62" height="62" viewBox="0 0 62 62" fill="none" xmlns="http://www.w3.org/2000/svg">
<g filter="url(#filter0_dd_7_19556)">
<rect x="2" y="2" width="58" height="58" rx="29" fill="white"/>
<rect x="10" y="10" width="42" height="42" stroke="#BCC1CA"/>
<path fill-rule="evenodd" clip-rule="evenodd" d="M11.5101 37.1953L11.2994 36.9551L11.6175 36.6399C12.3563 35.9693 12.9796 35.2863 13.6963 34.7768C13.6963 34.7768 13.7095 34.7685 13.736 34.7444C21.2266 29.4452 27.6192 31.9637 30.312 33.5291C30.3296 33.5338 30.3428 33.5421 30.3472 33.5468C30.3516 33.5513 30.3516 33.5513 30.3561 33.556C31.2348 34.0359 31.7201 34.4006 31.7201 34.4006L29.259 36.9934L24.847 41.6239C24.3042 42.1926 23.6916 42.6381 23.0368 42.9586C23.0314 42.9586 23.0279 42.9633 23.0235 42.9633C20.6361 44.1433 17.7015 43.6931 15.7298 41.6239L11.5101 37.1953Z" fill="#373FFE"/>
<path d="M50.4878 38.184C50.311 39.1198 49.943 40.0151 49.3844 40.7919C49.3843 40.7965 49.3795 40.8009 49.3747 40.8054C49.3699 40.8098 49.3663 40.8143 49.3626 40.8188C49.359 40.8232 49.3554 40.8277 49.3505 40.8321C49.0991 41.1778 48.8117 41.505 48.4839 41.8082C47.1121 43.0723 45.3475 43.6735 43.5982 43.6221C41.8518 43.5708 40.1264 42.8669 38.8313 41.5245L34.2763 36.7998C33.9556 36.5154 33.6514 36.2116 33.3471 35.9077C32.739 35.3003 32.1305 34.6925 31.3895 34.2389L31.3835 34.235C31.3618 34.2209 31.3373 34.2049 31.312 34.1921C31.2532 34.1579 31.1933 34.1226 31.1313 34.086C31.0676 34.0485 31.0018 34.0096 30.9327 33.9694H30.9281C30.9225 33.9647 30.9225 33.9647 30.9188 33.9647V33.96C30.9142 33.9554 30.9004 33.946 30.8819 33.9413C30.4205 33.6821 29.8575 33.3986 29.2041 33.13C29.0942 33.0832 28.9844 33.0374 28.87 32.9962C28.7725 32.9563 28.6717 32.9206 28.571 32.8849C28.5534 32.8786 28.5359 32.8724 28.5184 32.8661C27.9056 32.6434 27.229 32.4395 26.4972 32.2869C26.3736 32.2542 26.2499 32.2308 26.1225 32.2083C25.8798 32.1569 25.6333 32.1194 25.3768 32.083C25.148 32.0502 24.9154 32.0231 24.6772 32.0034C24.5905 31.9893 24.5038 31.9847 24.417 31.981C24.2749 31.9669 24.1336 31.9575 23.9869 31.9529C22.5509 31.8827 20.9737 32.0137 19.2912 32.4628C19.1177 32.5087 18.9396 32.5602 18.7605 32.6153C18.3268 32.7454 17.8874 32.8989 17.4435 33.0748C17.3162 33.1254 17.1925 33.1768 17.0689 33.232C17.0527 33.2389 17.0366 33.2458 17.0204 33.2526C16.9044 33.3019 16.7877 33.3515 16.6711 33.4032C16.6414 33.4169 16.6116 33.4306 16.5818 33.4442C16.4793 33.4913 16.3763 33.5385 16.2733 33.5885C16.2375 33.6062 16.2014 33.6238 16.1652 33.6414C16.067 33.6893 15.968 33.7375 15.8709 33.7888C15.1215 34.1687 14.3574 34.6188 13.5849 35.1428C13.5772 35.1475 13.5709 35.1525 13.5645 35.1575C13.5594 35.1616 13.5541 35.1658 13.548 35.1699C13.5212 35.1933 13.5074 35.2027 13.5074 35.2027C13.1964 35.4113 12.8853 35.6387 12.5697 35.8801C12.2223 36.1459 11.921 36.4117 11.59 36.7038C11.4944 36.788 11.3964 36.8745 11.2941 36.9638C11.1179 37.1641 11.9024 36.2404 11.9024 36.2404L19.8533 28.1791L19.8671 28.1613L20.3978 27.6223L25.5826 22.37C25.5826 22.37 25.5872 22.3654 25.601 22.3522C25.6057 22.3429 25.6149 22.3336 25.6195 22.3289L27.5484 20.3769C28.1705 19.7463 28.8838 19.2643 29.648 18.935C32.1075 17.8551 35.0701 18.338 37.082 20.3769L44.4186 27.8162L45.9809 29.3103L48.7379 32.1027C50.2984 33.7214 50.8823 36.0345 50.4947 38.1471C50.4926 38.1594 50.4901 38.1717 50.4878 38.184Z" fill="#5686FF"/>
<path d="M41.9113 42.3071C46.2611 40.157 47.7588 34.4069 45.2565 29.4639C44.79 28.5423 44.2174 27.7139 43.5662 26.9898L48.8009 32.2304C51.0625 34.5486 51.2728 38.3081 49.4474 40.8166C49.4473 40.8211 49.4425 40.8255 49.4377 40.8298C49.4329 40.8342 49.4292 40.8386 49.4256 40.843C49.4219 40.8475 49.4183 40.8519 49.4135 40.8563C49.162 41.1979 48.8747 41.5212 48.5468 41.8209C47.1751 43.0699 45.4104 43.664 43.6612 43.6131C42.603 43.5825 41.5525 43.315 40.6008 42.8139C41.0465 42.6863 41.4847 42.5179 41.9113 42.3071Z" fill="#92B1FF"/>
</g>
<defs>
<filter id="filter0_dd_7_19556" x="0" y="0" width="62" height="62" filterUnits="userSpaceOnUse" color-interpolation-filters="sRGB">
<feFlood flood-opacity="0" result="BackgroundImageFix"/>
<feColorMatrix in="SourceAlpha" type="matrix" values="0 0 0 0 0 0 0 0 0 0 0 0 0 0 0 0 0 0 127 0" result="hardAlpha"/>
<feOffset/>
<feGaussianBlur stdDeviation="0.5"/>
<feColorMatrix type="matrix" values="0 0 0 0 0.0901961 0 0 0 0 0.101961 0 0 0 0 0.121569 0 0 0 0.07 0"/>
<feBlend mode="normal" in2="BackgroundImageFix" result="effect1_dropShadow_7_19556"/>
<feColorMatrix in="SourceAlpha" type="matrix" values="0 0 0 0 0 0 0 0 0 0 0 0 0 0 0 0 0 0 127 0" result="hardAlpha"/>
<feOffset/>
<feGaussianBlur stdDeviation="1"/>
<feColorMatrix type="matrix" values="0 0 0 0 0.0901961 0 0 0 0 0.101961 0 0 0 0 0.121569 0 0 0 0.12 0"/>
<feBlend mode="normal" in2="effect1_dropShadow_7_19556" result="effect2_dropShadow_7_19556"/>
<feBlend mode="normal" in="SourceGraphic" in2="effect2_dropShadow_7_19556" result="shape"/>
</filter>
</defs>
</svg>
