<svg width="16" height="13" viewBox="0 0 16 13" fill="none" xmlns="http://www.w3.org/2000/svg">
<path d="M4.625 5.9375H10.25V0.875C10.25 0.725816 10.1907 0.582742 10.0852 0.477253C9.97976 0.371763 9.83668 0.3125 9.6875 0.3125H1.25C1.10082 0.3125 0.957742 0.371763 0.852252 0.477253C0.746763 0.582742 0.6875 0.725816 0.6875 0.875V12.125C0.6875 12.2742 0.746763 12.4173 0.852252 12.5227C0.957742 12.6282 1.10082 12.6875 1.25 12.6875H9.6875C9.83668 12.6875 9.97976 12.6282 10.0852 12.5227C10.1907 12.4173 10.25 12.2742 10.25 12.125V7.0625H4.625V5.9375ZM15.1476 6.10238L11.9375 2.89191L11.1419 3.6875L13.3919 5.9375H10.25V7.0625H13.3919L11.1419 9.3125L11.9375 10.1081L15.1476 6.89762C15.253 6.79214 15.3122 6.64912 15.3122 6.5C15.3122 6.35088 15.253 6.20786 15.1476 6.10238Z" fill="#E0E1FA"/>
<path d="M4.625 5.9375H10.25V0.875C10.25 0.725816 10.1907 0.582742 10.0852 0.477253C9.97976 0.371763 9.83668 0.3125 9.6875 0.3125H1.25C1.10082 0.3125 0.957742 0.371763 0.852252 0.477253C0.746763 0.582742 0.6875 0.725816 0.6875 0.875V12.125C0.6875 12.2742 0.746763 12.4173 0.852252 12.5227C0.957742 12.6282 1.10082 12.6875 1.25 12.6875H9.6875C9.83668 12.6875 9.97976 12.6282 10.0852 12.5227C10.1907 12.4173 10.25 12.2742 10.25 12.125V7.0625H4.625V5.9375ZM15.1476 6.10238L11.9375 2.89191L11.1419 3.6875L13.3919 5.9375H10.25V7.0625H13.3919L11.1419 9.3125L11.9375 10.1081L15.1476 6.89762C15.253 6.79214 15.3122 6.64912 15.3122 6.5C15.3122 6.35088 15.253 6.20786 15.1476 6.10238Z" fill="black" fill-opacity="0.2"/>
</svg>
