<svg width="22" height="16" viewBox="0 0 22 16" fill="none" xmlns="http://www.w3.org/2000/svg">
<path d="M0 16V13.2C0 12.6333 0.146 12.1127 0.438 11.638C0.73 11.1633 1.11733 10.8007 1.6 10.55C2.63333 10.0333 3.68333 9.646 4.75 9.38799C5.81667 9.12999 6.9 9.00066 8 9C9.1 8.99933 10.1833 9.12866 11.25 9.38799C12.3167 9.64733 13.3667 10.0347 14.4 10.55C14.8833 10.8 15.271 11.1627 15.563 11.638C15.855 12.1133 16.0007 12.634 16 13.2V16H0ZM18 16V13C18 12.2667 17.796 11.5623 17.388 10.887C16.98 10.2117 16.4007 9.63266 15.65 9.14999C16.5 9.25 17.3 9.421 18.05 9.663C18.8 9.90499 19.5 10.2007 20.15 10.55C20.75 10.8833 21.2083 11.254 21.525 11.662C21.8417 12.07 22 12.516 22 13V16H18ZM8 8C6.9 8 5.95833 7.60833 5.175 6.825C4.39167 6.04166 4 5.1 4 4C4 2.9 4.39167 1.95833 5.175 1.175C5.95833 0.391662 6.9 -4.8769e-06 8 -4.8769e-06C9.1 -4.8769e-06 10.0417 0.391662 10.825 1.175C11.6083 1.95833 12 2.9 12 4C12 5.1 11.6083 6.04166 10.825 6.825C10.0417 7.60833 9.1 8 8 8ZM18 4C18 5.1 17.6083 6.04166 16.825 6.825C16.0417 7.60833 15.1 8 14 8C13.8167 8 13.5833 7.97933 13.3 7.93799C13.0167 7.89666 12.7833 7.85066 12.6 7.8C13.05 7.26666 13.396 6.67499 13.638 6.02499C13.88 5.37499 14.0007 4.7 14 4C13.9993 3.3 13.8787 2.62499 13.638 1.975C13.3973 1.325 13.0513 0.733328 12.6 0.199995C12.8333 0.116662 13.0667 0.0623286 13.3 0.0369953C13.5333 0.011662 13.7667 -0.000671544 14 -4.8769e-06C15.1 -4.8769e-06 16.0417 0.391662 16.825 1.175C17.6083 1.95833 18 2.9 18 4Z" fill="#E0E1FA"/>
<path d="M0 16V13.2C0 12.6333 0.146 12.1127 0.438 11.638C0.73 11.1633 1.11733 10.8007 1.6 10.55C2.63333 10.0333 3.68333 9.646 4.75 9.38799C5.81667 9.12999 6.9 9.00066 8 9C9.1 8.99933 10.1833 9.12866 11.25 9.38799C12.3167 9.64733 13.3667 10.0347 14.4 10.55C14.8833 10.8 15.271 11.1627 15.563 11.638C15.855 12.1133 16.0007 12.634 16 13.2V16H0ZM18 16V13C18 12.2667 17.796 11.5623 17.388 10.887C16.98 10.2117 16.4007 9.63266 15.65 9.14999C16.5 9.25 17.3 9.421 18.05 9.663C18.8 9.90499 19.5 10.2007 20.15 10.55C20.75 10.8833 21.2083 11.254 21.525 11.662C21.8417 12.07 22 12.516 22 13V16H18ZM8 8C6.9 8 5.95833 7.60833 5.175 6.825C4.39167 6.04166 4 5.1 4 4C4 2.9 4.39167 1.95833 5.175 1.175C5.95833 0.391662 6.9 -4.8769e-06 8 -4.8769e-06C9.1 -4.8769e-06 10.0417 0.391662 10.825 1.175C11.6083 1.95833 12 2.9 12 4C12 5.1 11.6083 6.04166 10.825 6.825C10.0417 7.60833 9.1 8 8 8ZM18 4C18 5.1 17.6083 6.04166 16.825 6.825C16.0417 7.60833 15.1 8 14 8C13.8167 8 13.5833 7.97933 13.3 7.93799C13.0167 7.89666 12.7833 7.85066 12.6 7.8C13.05 7.26666 13.396 6.67499 13.638 6.02499C13.88 5.37499 14.0007 4.7 14 4C13.9993 3.3 13.8787 2.62499 13.638 1.975C13.3973 1.325 13.0513 0.733328 12.6 0.199995C12.8333 0.116662 13.0667 0.0623286 13.3 0.0369953C13.5333 0.011662 13.7667 -0.000671544 14 -4.8769e-06C15.1 -4.8769e-06 16.0417 0.391662 16.825 1.175C17.6083 1.95833 18 2.9 18 4Z" fill="black" fill-opacity="0.2"/>
</svg>
