<svg width="14" height="14" viewBox="0 0 14 14" fill="none" xmlns="http://www.w3.org/2000/svg">
<path d="M0.52667 12.5267L3 10.0733C2.03994 8.87628 1.575 7.35687 1.7008 5.82753C1.82659 4.2982 2.53356 2.87519 3.67632 1.8511C4.81909 0.827005 6.3108 0.279674 7.84472 0.321648C9.37864 0.363622 10.8382 0.991709 11.9232 2.07676C13.0083 3.16182 13.6364 4.62136 13.6784 6.15528C13.7203 7.68921 13.173 9.18091 12.1489 10.3237C11.1248 11.4664 9.7018 12.1734 8.17247 12.2992C6.64314 12.425 5.12373 11.9601 3.92667 11L1.47334 13.4533C1.41136 13.5158 1.33763 13.5654 1.25639 13.5993C1.17515 13.6331 1.08801 13.6505 1 13.6505C0.911995 13.6505 0.824859 13.6331 0.743619 13.5993C0.662379 13.5654 0.588646 13.5158 0.52667 13.4533C0.40651 13.329 0.339344 13.1629 0.339344 12.99C0.339344 12.8171 0.40651 12.651 0.52667 12.5267ZM7.66667 11C8.58965 11 9.4919 10.7263 10.2593 10.2135C11.0268 9.70075 11.6249 8.97191 11.9781 8.11919C12.3313 7.26647 12.4237 6.32816 12.2437 5.42291C12.0636 4.51767 11.6191 3.68615 10.9665 3.0335C10.3139 2.38086 9.48234 1.9364 8.57709 1.75634C7.67185 1.57627 6.73354 1.66869 5.88081 2.0219C5.02809 2.37511 4.29926 2.97324 3.78648 3.74067C3.2737 4.5081 3 5.41036 3 6.33333C3 7.57101 3.49167 8.758 4.36684 9.63317C5.24201 10.5083 6.42899 11 7.66667 11Z" fill="#404040"/>
</svg>
