<svg width="21" height="24" viewBox="0 0 21 24" fill="none" xmlns="http://www.w3.org/2000/svg">
<path fill-rule="evenodd" clip-rule="evenodd" d="M1.12806 0.754286C1.60983 0.271911 2.26345 0.000600178 2.9452 0L12.5229 0C13.2047 0.000600178 13.8583 0.271911 14.3401 0.754286L20.1926 6.60686C20.675 7.08863 20.9463 7.74224 20.9469 8.424V21.4286C20.9469 22.1106 20.676 22.7646 20.1938 23.2468C19.7115 23.7291 19.0575 24 18.3755 24H2.94692C2.26493 24 1.61088 23.7291 1.12864 23.2468C0.646406 22.7646 0.375488 22.1106 0.375488 21.4286V2.57143C0.375488 1.88914 0.644631 1.23429 1.12806 0.754286ZM9.1372 7.76057C9.27486 7.85864 9.39184 7.98288 9.48144 8.1262C9.57103 8.26951 9.63149 8.42909 9.65936 8.5958C9.68722 8.7625 9.68194 8.93307 9.64382 9.09773C9.6057 9.26239 9.53549 9.41793 9.4372 9.55543L7.04235 12.9086C6.93375 13.0603 6.79343 13.1866 6.63114 13.2786C6.46884 13.3706 6.28846 13.4263 6.10251 13.4416C5.91656 13.4569 5.7295 13.4316 5.55432 13.3674C5.37914 13.3032 5.22004 13.2016 5.08806 13.0697L3.65149 11.6331C3.42438 11.3894 3.30074 11.067 3.30662 10.734C3.31249 10.4009 3.44743 10.0831 3.68299 9.84751C3.91856 9.61194 4.23636 9.47701 4.56945 9.47113C4.90254 9.46525 5.2249 9.58889 5.46863 9.816L5.83206 10.1777L7.34406 8.06229C7.54209 7.78475 7.84224 7.59723 8.17851 7.54097C8.51478 7.48471 8.85962 7.56261 9.1372 7.76057ZM10.7658 10.9269C10.7658 10.5859 10.9012 10.2588 11.1424 10.0177C11.3835 9.7766 11.7105 9.64114 12.0515 9.64114H16.3372C16.6782 9.64114 17.0052 9.7766 17.2463 10.0177C17.4875 10.2588 17.6229 10.5859 17.6229 10.9269C17.6229 11.2678 17.4875 11.5949 17.2463 11.836C17.0052 12.0771 16.6782 12.2126 16.3372 12.2126H12.0515C11.7105 12.2126 11.3835 12.0771 11.1424 11.836C10.9012 11.5949 10.7658 11.2678 10.7658 10.9269ZM10.7658 17.7309C10.7658 17.3899 10.9012 17.0628 11.1424 16.8217C11.3835 16.5806 11.7105 16.4451 12.0515 16.4451H16.3372C16.6782 16.4451 17.0052 16.5806 17.2463 16.8217C17.4875 17.0628 17.6229 17.3899 17.6229 17.7309C17.6229 18.0718 17.4875 18.3989 17.2463 18.64C17.0052 18.8811 16.6782 19.0166 16.3372 19.0166H12.0515C11.7105 19.0166 11.3835 18.8811 11.1424 18.64C10.9012 18.3989 10.7658 18.0718 10.7658 17.7309ZM9.4372 16.4657C9.54006 16.3287 9.61448 16.1724 9.6561 16.0062C9.69771 15.84 9.70567 15.6671 9.67952 15.4977C9.65337 15.3284 9.59363 15.166 9.50381 15.0201C9.41399 14.8741 9.29591 14.7476 9.1565 14.648C9.01709 14.5483 8.85917 14.4776 8.69202 14.4398C8.52487 14.4021 8.35186 14.3981 8.18316 14.4282C8.01447 14.4583 7.85348 14.5218 7.70968 14.615C7.56588 14.7082 7.44215 14.8292 7.34577 14.9709L5.83206 17.088L5.46863 16.7246C5.2249 16.4975 4.90254 16.3738 4.56945 16.3797C4.23636 16.3856 3.91856 16.5205 3.68299 16.7561C3.44743 16.9916 3.31249 17.3094 3.30662 17.6425C3.30074 17.9756 3.42438 18.298 3.65149 18.5417L5.08806 19.9783C5.22004 20.1102 5.37914 20.2117 5.55432 20.276C5.7295 20.3402 5.91656 20.3655 6.10251 20.3502C6.28846 20.3348 6.46884 20.2792 6.63114 20.1872C6.79343 20.0951 6.93375 19.9689 7.04235 19.8171L9.4372 16.4657Z" fill="#E0E1FA"/>
<path fill-rule="evenodd" clip-rule="evenodd" d="M1.12806 0.754286C1.60983 0.271911 2.26345 0.000600178 2.9452 0L12.5229 0C13.2047 0.000600178 13.8583 0.271911 14.3401 0.754286L20.1926 6.60686C20.675 7.08863 20.9463 7.74224 20.9469 8.424V21.4286C20.9469 22.1106 20.676 22.7646 20.1938 23.2468C19.7115 23.7291 19.0575 24 18.3755 24H2.94692C2.26493 24 1.61088 23.7291 1.12864 23.2468C0.646406 22.7646 0.375488 22.1106 0.375488 21.4286V2.57143C0.375488 1.88914 0.644631 1.23429 1.12806 0.754286ZM9.1372 7.76057C9.27486 7.85864 9.39184 7.98288 9.48144 8.1262C9.57103 8.26951 9.63149 8.42909 9.65936 8.5958C9.68722 8.7625 9.68194 8.93307 9.64382 9.09773C9.6057 9.26239 9.53549 9.41793 9.4372 9.55543L7.04235 12.9086C6.93375 13.0603 6.79343 13.1866 6.63114 13.2786C6.46884 13.3706 6.28846 13.4263 6.10251 13.4416C5.91656 13.4569 5.7295 13.4316 5.55432 13.3674C5.37914 13.3032 5.22004 13.2016 5.08806 13.0697L3.65149 11.6331C3.42438 11.3894 3.30074 11.067 3.30662 10.734C3.31249 10.4009 3.44743 10.0831 3.68299 9.84751C3.91856 9.61194 4.23636 9.47701 4.56945 9.47113C4.90254 9.46525 5.2249 9.58889 5.46863 9.816L5.83206 10.1777L7.34406 8.06229C7.54209 7.78475 7.84224 7.59723 8.17851 7.54097C8.51478 7.48471 8.85962 7.56261 9.1372 7.76057ZM10.7658 10.9269C10.7658 10.5859 10.9012 10.2588 11.1424 10.0177C11.3835 9.7766 11.7105 9.64114 12.0515 9.64114H16.3372C16.6782 9.64114 17.0052 9.7766 17.2463 10.0177C17.4875 10.2588 17.6229 10.5859 17.6229 10.9269C17.6229 11.2678 17.4875 11.5949 17.2463 11.836C17.0052 12.0771 16.6782 12.2126 16.3372 12.2126H12.0515C11.7105 12.2126 11.3835 12.0771 11.1424 11.836C10.9012 11.5949 10.7658 11.2678 10.7658 10.9269ZM10.7658 17.7309C10.7658 17.3899 10.9012 17.0628 11.1424 16.8217C11.3835 16.5806 11.7105 16.4451 12.0515 16.4451H16.3372C16.6782 16.4451 17.0052 16.5806 17.2463 16.8217C17.4875 17.0628 17.6229 17.3899 17.6229 17.7309C17.6229 18.0718 17.4875 18.3989 17.2463 18.64C17.0052 18.8811 16.6782 19.0166 16.3372 19.0166H12.0515C11.7105 19.0166 11.3835 18.8811 11.1424 18.64C10.9012 18.3989 10.7658 18.0718 10.7658 17.7309ZM9.4372 16.4657C9.54006 16.3287 9.61448 16.1724 9.6561 16.0062C9.69771 15.84 9.70567 15.6671 9.67952 15.4977C9.65337 15.3284 9.59363 15.166 9.50381 15.0201C9.41399 14.8741 9.29591 14.7476 9.1565 14.648C9.01709 14.5483 8.85917 14.4776 8.69202 14.4398C8.52487 14.4021 8.35186 14.3981 8.18316 14.4282C8.01447 14.4583 7.85348 14.5218 7.70968 14.615C7.56588 14.7082 7.44215 14.8292 7.34577 14.9709L5.83206 17.088L5.46863 16.7246C5.2249 16.4975 4.90254 16.3738 4.56945 16.3797C4.23636 16.3856 3.91856 16.5205 3.68299 16.7561C3.44743 16.9916 3.31249 17.3094 3.30662 17.6425C3.30074 17.9756 3.42438 18.298 3.65149 18.5417L5.08806 19.9783C5.22004 20.1102 5.37914 20.2117 5.55432 20.276C5.7295 20.3402 5.91656 20.3655 6.10251 20.3502C6.28846 20.3348 6.46884 20.2792 6.63114 20.1872C6.79343 20.0951 6.93375 19.9689 7.04235 19.8171L9.4372 16.4657Z" fill="black" fill-opacity="0.2"/>
</svg>
